HIERARCHY
ROOT Hips
{
	OFFSET	0.00	0.00	0.00
	CHANNELS 6 Xposition Yposition Zposition Zrotation Xrotation Yrotation
	JOINT Spine
	{
		OFFSET	 0.00	0.01	 0.00
		CHANNELS 3 Zrotation Xrotation Yrotation
		JOINT Spine1
		{
			OFFSET	 0.00	 2.45913012437421	 0.00
			CHANNELS 3 Zrotation Xrotation Yrotation
            JOINT Neck
            {
                OFFSET	 0.00	 2.48462964506057	 0.00
                CHANNELS 3 Zrotation Xrotation Yrotation
                JOINT Head
                {
                    OFFSET	 0.00	 0.927524780924562	 0.00
                    CHANNELS 3 Zrotation Xrotation Yrotation
                    End Site 
                    {
                        OFFSET	 0.00	 1.14999962169752	 0.00
                    }
                }
            }
			JOINT LeftShoulder
			{
				OFFSET	 0.00	 2.48462964506057	 0.00
				CHANNELS 3 Zrotation Xrotation Yrotation
				JOINT LeftUpArm
				{
					OFFSET	 0.00	 1.24881979654096	 0.00
					CHANNELS 3 Zrotation Xrotation Yrotation
					JOINT LeftForeArm
					{
						OFFSET	 0.00	2.59758046908119	 0.00
						CHANNELS 3 Zrotation Xrotation Yrotation
						JOINT LeftHand
						{
							OFFSET	 0.00	2.45542024364365	 0.00
							CHANNELS 3 Zrotation Xrotation Yrotation
							JOINT LeftHandThumb 
							{
								OFFSET	 0.00	0.00	 0.00
								CHANNELS 3 Zrotation Xrotation Yrotation
								End Site
								{
									OFFSET	 0.00	0.00	1.00000003353624
								}
							}
							JOINT L_Wrist_End 
							{
								OFFSET	 0.00	0.99999967115358	 0.00
								CHANNELS 3 Zrotation Xrotation Yrotation
								End Site 
								{
									OFFSET	 0.00	 0.00	 0.00
								}
							}
						}
					}
				}
			}
			JOINT RightShoulder
			{
				OFFSET	 0.00	 2.48462964506057	 0.00
				CHANNELS 3 Zrotation Xrotation Yrotation
				JOINT RightUpArm
				{
					OFFSET	 0.00	 1.24881979654096	 0.00
					CHANNELS 3 Zrotation Xrotation Yrotation
					JOINT RightForeArm
					{
						OFFSET	 0.00	2.59758046908119	 0.00
						CHANNELS 3 Zrotation Xrotation Yrotation
						JOINT RightHand
						{
							OFFSET	 0.00	2.45542024364365	 0.00
							CHANNELS 3 Zrotation Xrotation Yrotation
							JOINT RightHandThumb 
							{
								OFFSET	 0.00	0.00	 0.00
								CHANNELS 3 Zrotation Xrotation Yrotation
								End Site
								{
									OFFSET	 0.00	0.00	1.00000003353624
								}
							}
							JOINT R_Wrist_End 
							{
								OFFSET	 0.00	0.99999967115358	 0.00
								CHANNELS 3 Zrotation Xrotation Yrotation
								End Site 
								{
									OFFSET	 0.00	 0.00	 0.00
								}
							}
						}
					}
				}
			}
		}
	}
	JOINT LeftUpLeg
	{
		OFFSET	 1.2719394002717	 0.00	 0.00
		CHANNELS 3 Zrotation Xrotation Yrotation
		JOINT LeftLowLeg
		{
			OFFSET	 0.00	-4.3429100912261	 0.00
			CHANNELS 3 Zrotation Xrotation Yrotation
			JOINT LeftFoot
			{
				OFFSET	 0.00	-4.48767017425826	 0.00
				CHANNELS 3 Zrotation Xrotation Yrotation
				JOINT LeftToeBase
                {
                    OFFSET	 0.00	0.00	 1.51507020887566
                    CHANNELS 3 Zrotation Xrotation Yrotation
                    End Site 
                    {
                        OFFSET	 0.00	0.00	 0.75000010571191
                    }
                }
			}
		}
	}
	JOINT RightUpLeg
	{
		OFFSET	 -1.2719393604653	 0.00	 0.00
		CHANNELS 3 Zrotation Xrotation Yrotation
		JOINT RightLowLeg
		{
			OFFSET	 0.00	-4.3429100912261	 0.00
			CHANNELS 3 Zrotation Xrotation Yrotation
			JOINT RightFoot
			{
				OFFSET	 0.00	-4.48767017425826	 0.00
				CHANNELS 3 Zrotation Xrotation Yrotation
				JOINT RightToeBase
                {
                    OFFSET	 0.00	0.00	 1.51507020887566
                    CHANNELS 3 Zrotation Xrotation Yrotation
                    End Site 
                    {
                        OFFSET	 0.00	0.00	 0.749999965609858
                    }
                }   
			}
		}
	}
}
MOTION 
Frames:	18 
Frame Time: 0.02 
  3.340409851074219 7.363319702148438 6.033170166015625 -12.4371 62.34 -703.836 5.76549 8.4858 0.537273 -12.6701 20.7609 -5.23825 14.2805 46.2956 -11.2111 34.8056 -53.3524 40.0013 -107.2212 -5.82767 4.391 -33.7043 7.87472 42.3367 0.0 82.1526 0.0 47.7665 19.2782 18.9151 0.0 0.0 0.0 0.0 0.0 0.0 109.6947 -9.69394 1.67945 8.09837 -6.9904 17.5325 0.0 58.452 0.0 -18.2585 5.0073 0.625679 0.0 0.0 0.0 0.0 0.0 0.0 2.56642 -53.5551 4.91832 0.0 76.6796 0.0 6.54124 14.259537 -18.3002 0.0 -33.7739 0.0 18.7787 -63.4523 8.52384 0.0 101.148 0.0 19.8645 10.81758 -2.39815 0.0 -27.3661 0.0 
  3.3404901123046873 7.383889770507812 6.03385009765625 -13.0712 62.0676 -703.737 5.86023 9.11765 0.634424 -12.7791 20.3543 -5.18792 14.1024 46.374 -10.8592 35.0601 -53.333 40.0675 -107.2206 -5.84331 4.21051 -33.7497 7.56179 42.3785 0.0 82.271 0.0 47.9122 19.4562 18.9646 0.0 0.0 0.0 0.0 0.0 0.0 109.6496 -9.50768 1.63807 7.90199 -7.04234 18.5498 0.0 56.5173 0.0 -17.8208 4.78238 0.529612 0.0 0.0 0.0 0.0 0.0 0.0 3.12647 -53.5651 4.74564 0.0 76.6847 0.0 5.11068 14.982929 -18.5009 0.0 -34.0039 0.0 21.4106 -64.0164 12.0652 0.0 98.1608 0.0 19.1679 11.12063 -2.94549 0.0 -27.217499 0.0 
  3.341719970703125 7.40281982421875 6.03468994140625 -13.5616 61.7505 -703.658 5.96211 9.75157 0.670849 -12.8707 20.1578 -5.16635 14.0003 46.3474 -10.6523 35.4467 -53.4785 40.4778 -107.2358 -5.84451 4.16349 -33.6449 7.38057 42.3359 0.0 82.5384 0.0 48.0725 19.6816 18.9149 0.0 0.0 0.0 0.0 0.0 0.0 109.6175 -9.49655 1.68434 7.70693 -6.8953 19.5074 0.0 54.7109 0.0 -17.4776 4.304 0.335179 0.0 0.0 0.0 0.0 0.0 0.0 3.44106 -53.4847 4.41777 0.0 76.7501 0.0 4.03568 15.397238 -18.6577 0.0 -33.9582 0.0 23.6816 -64.5783 15.2478 0.0 94.8846 0.0 18.5934 11.81941 -3.1136 0.0 -27.5722 0.0 
  3.3445999145507814 7.419310302734375 6.034010009765625 -14.0106 61.3793 -703.588 6.01891 10.306 0.664599 -12.8176 20.2163 -5.15399 13.7839 46.1567 -10.3745 35.8633 -53.6638 40.8247 -107.2731 -5.85618 4.23147 -33.49 7.36012 42.2408 0.0 82.9151 0.0 48.1524 19.8709 18.7283 0.0 0.0 0.0 0.0 0.0 0.0 109.5374 -9.34514 1.79944 7.49554 -6.8961 20.5818 0.0 53.0988 0.0 -16.803 3.60209 0.0631133 0.0 0.0 0.0 0.0 0.0 0.0 3.65947 -53.2837 4.14161 0.0 76.7971 0.0 3.82464 15.564184 -18.53 0.0 -33.931297 0.0 25.7031 -65.1739 17.6637 0.0 91.6509 0.0 19.4134 12.1126995 -3.51359 0.0 -27.8218 0.0 
  3.3482598876953125 7.434409790039062 6.0326300048828125 -14.3295 61.0247 -703.598 6.21295 10.946 0.72054 -13.0637 20.1625 -5.06392 14.0409 46.1732 -10.5792 36.4276 -53.887 41.7183 -107.168396 -5.76697 4.49548 -33.1995 7.43749 42.2004 0.0 83.3379 0.0 48.2238 20.0832 18.8625 0.0 0.0 0.0 0.0 0.0 0.0 109.666595 -9.44898 1.8139 7.22038 -6.82587 21.6829 0.0 51.5386 0.0 -16.3024 2.89357 -0.1627 0.0 0.0 0.0 0.0 0.0 0.0 3.73388 -52.9672 3.93847 0.0 76.7136 0.0 4.42696 15.5402565 -18.0494 0.0 -33.963898 0.0 27.5632 -65.7109 20.2136 0.0 88.2333 0.0 17.7309 12.98579 -3.17796 0.0 -29.2672 0.0 
  3.3519601440429687 7.4454498291015625 6.02864990234375 -14.6765 60.737 -703.535 6.32643 11.4207 0.708343 -13.1137 20.1905 -5.04663 14.1299 46.0743 -10.6453 36.7851 -54.0148 42.2598 -107.104996 -5.72333 4.34959 -33.0114 7.32649 42.4514 0.0 83.7156 0.0 48.0994 20.0997 19.2028 0.0 0.0 0.0 0.0 0.0 0.0 109.6582 -9.44112 1.91955 6.98826 -6.77716 22.6682 0.0 49.9529 0.0 -15.9591 2.91099 0.00744937 0.0 0.0 0.0 0.0 0.0 0.0 3.70092 -52.6993 3.73425 0.0 76.6482 0.0 5.32333 15.40627 -17.4034 0.0 -33.736298 0.0 29.4622 -66.2617 22.3884 0.0 84.9096 0.0 18.0099 12.666161 -2.87705 0.0 -28.2005 0.0 
  3.357179870605469 7.460399780273438 6.021510009765625 -15.1708 60.3144 -703.417 6.6395 12.156 0.716863 -13.2894 20.0223 -4.97714 14.3136 45.9535 -10.8327 37.0323 -54.0344 42.6943 -107.0334 -5.58827 4.33703 -32.7504 7.23961 42.5804 0.0 84.0324 0.0 48.0229 20.1151 19.5252 0.0 0.0 0.0 0.0 0.0 0.0 109.6677 -9.47373 2.01204 6.86752 -6.78418 23.6116 0.0 48.5178 0.0 -16.112 3.02512 0.530739 0.0 0.0 0.0 0.0 0.0 0.0 3.7646 -52.4099 3.5006 0.0 76.6791 0.0 6.19991 15.365084 -16.6882 0.0 -33.558 0.0 31.3861 -66.7266 24.0758 0.0 81.639 0.0 17.6185 12.75576 -3.07309 0.0 -27.9399 0.0 
  3.359739990234375 7.467230224609375 6.017080078125 -15.664 60.0824 -703.181 6.89207 12.5302 0.713794 -13.4407 20.0861 -4.8917 14.3251 45.8363 -10.6943 37.6299 -54.0672 43.2555 -106.9645 -5.39148 4.31866 -32.4899 7.17459 42.6129 0.0 84.2345 0.0 48.1617 20.144 19.2101 0.0 0.0 0.0 0.0 0.0 0.0 109.6989 -9.50102 2.16866 6.88532 -6.98643 24.4461 0.0 47.5126 0.0 -16.2765 2.78323 1.94103 0.0 0.0 0.0 0.0 0.0 0.0 3.60718 -52.3319 2.90672 0.0 76.7462 0.0 6.57292 15.410779 -16.0577 0.0 -33.503998 0.0 33.3661 -67.348 25.6197 0.0 78.5155 0.0 16.5778 12.97638 -3.60524 0.0 -28.614601 0.0 
  3.361820068359375 7.4696502685546875 6.012890014648438 -16.2312 59.7585 -703.01 7.03189 12.8559 0.699409 -13.3235 20.3656 -4.80752 14.1802 45.5009 -10.4933 37.8451 -54.056 43.6786 -107.0756 -5.38336 4.13243 -32.2465 7.21535 42.5994 0.0 84.3637 0.0 48.3741 20.0696 18.6695 0.0 0.0 0.0 0.0 0.0 0.0 109.6456 -9.39529 2.32382 7.03178 -7.06107 25.5972 0.0 46.717 0.0 -16.6525 2.50056 2.91984 0.0 0.0 0.0 0.0 0.0 0.0 3.56978 -52.2893 2.28666 0.0 77.0807 0.0 6.68928 15.526741 -15.4033 0.0 -33.479797 0.0 35.6497 -67.729 27.608 0.0 75.6417 0.0 15.5937 13.02268 -3.28495 0.0 -29.021801 0.0 
  3.3649798583984376 7.474500122070313 6.0098199462890625 -16.6458 59.474 -702.952 7.20944 13.2485 0.719044 -13.3379 20.5675 -4.69151 14.298 45.2325 -10.639 38.0856 -54.1206 44.3236 -107.2016 -5.28865 4.41861 -31.8749 7.53387 42.1994 0.0 84.469 0.0 48.669 20.2287 17.9821 0.0 0.0 0.0 0.0 0.0 0.0 109.7216 -9.33393 2.4763 7.24232 -7.27366 26.7758 0.0 46.2989 0.0 -17.0317 2.25737 3.93125 0.0 0.0 0.0 0.0 0.0 0.0 3.56541 -52.1839 1.80871 0.0 77.27 0.0 6.56712 15.616378 -14.9649 0.0 -33.386 0.0 37.9775 -68.4321 28.3841 0.0 73.2106 0.0 17.7778 13.44854 -4.77068 0.0 -30.688 0.0 
  3.3668701171875 7.472639770507812 6.006719970703125 -17.195 59.153 -702.872 7.43291 13.5506 0.77243 -13.3257 20.8261 -4.50354 14.1526 44.9205 -10.4635 38.2756 -54.1297 44.6555 -107.2242 -5.20512 4.3956 -31.7301 7.64199 42.065 0.0 84.6324 0.0 48.5894 20.3778 17.3696 0.0 0.0 0.0 0.0 0.0 0.0 109.683395 -9.2481 2.66966 7.67554 -7.58145 27.8381 0.0 46.3165 0.0 -17.3447 1.91179 4.95521 0.0 0.0 0.0 0.0 0.0 0.0 4.02513 -52.1039 1.90809 0.0 77.6527 0.0 6.75416 15.608839 -14.6398 0.0 -33.3056 0.0 40.4936 -68.898 28.7735 0.0 70.9995 0.0 19.105 12.83937 -6.55044 0.0 -30.8092 0.0 
  3.371409912109375 7.469459838867188 6.005040283203125 -17.3363 58.9025 -702.855 7.59608 13.8554 0.719156 -13.2989 21.0667 -4.46063 14.0656 44.6136 -10.3728 38.4519 -54.1454 44.9948 -107.2988 -5.09522 4.26464 -31.5614 7.68847 42.1277 0.0 84.8698 0.0 48.4569 20.4676 17.4161 0.0 0.0 0.0 0.0 0.0 0.0 109.7079 -9.33154 2.81381 8.18078 -7.7877 28.823 0.0 46.6532 0.0 -17.6608 1.47545 6.193 0.0 0.0 0.0 0.0 0.0 0.0 3.67859 -51.9295 1.25121 0.0 77.7925 0.0 6.95725 15.586234 -14.1784 0.0 -33.366302 0.0 42.137 -69.2535 29.084 0.0 69.2844 0.0 17.1883 11.33373 -6.70868 0.0 -28.3822 0.0 
  3.3775399780273436 7.473469848632813 6.003330078125 -17.2592 58.7008 -702.949 7.7568 14.3223 0.630572 -13.3541 21.1069 -4.49887 13.9098 44.379 -10.1781 38.815 -54.2523 45.3288 -107.3088 -4.99927 4.27704 -31.4253 7.80569 42.1706 0.0 85.1199 0.0 48.4542 20.5188 17.6056 0.0 0.0 0.0 0.0 0.0 0.0 109.8225 -9.37393 2.85888 8.73119 -8.06142 29.5876 0.0 47.2909 0.0 -18.1177 0.820521 7.58767 0.0 0.0 0.0 0.0 0.0 0.0 2.74103 -51.7042 -0.0947577 0.0 77.7341 0.0 6.77983 15.6380005 -13.5317 0.0 -33.1694 0.0 43.7703 -69.8581 28.9164 0.0 67.9685 0.0 17.0036 10.80919 -7.47406 0.0 -28.4276 0.0 
  3.3849798583984376 7.479550170898437 6.000640258789063 -16.9828 58.538 -703.132 7.88509 14.864 0.557315 -13.3694 21.0765 -4.54286 13.8708 44.0436 -10.1996 39.0284 -54.3057 45.5607 -107.2863 -4.81233 4.3721 -31.3556 7.95456 42.2545 0.0 85.3723 0.0 48.1702 20.5369 16.528 0.0 0.0 0.0 0.0 0.0 0.0 109.9449 -9.5898 2.9344 9.28477 -8.30116 29.932 0.0 48.1776 0.0 -18.5852 0.0860392 9.20628 0.0 0.0 0.0 0.0 0.0 0.0 1.25492 -51.4324 -2.05782 0.0 77.5685 0.0 6.53625 15.78265 -12.5969 0.0 -33.0023 0.0 45.2382 -70.4912 28.614 0.0 67.0079 0.0 16.8114 10.35326 -7.87681 0.0 -28.1085 0.0 
  3.3909100341796874 7.486790161132813 5.999559936523437 -16.875 58.5357 -703.205 8.00025 15.2505 0.450534 -13.3467 20.9994 -4.63103 13.6445 43.8212 -9.96086 39.3044 -54.4484 45.784 -107.296 -4.75214 4.44202 -31.2999 8.06824 42.3554 0.0 85.543 0.0 47.9023 20.7345 16.9332 0.0 0.0 0.0 0.0 0.0 0.0 110.1069 -9.60419 2.91945 9.76618 -8.56594 29.8933 0.0 49.1639 0.0 -19.019 -0.482185 10.6586 0.0 0.0 0.0 0.0 0.0 0.0 -0.188794 -51.2822 -4.04538 0.0 77.3528 0.0 6.11727 15.9417095 -11.579 0.0 -32.8429 0.0 47.4027 -71.093 29.0608 0.0 66.2866 0.0 16.4157 10.26107 -8.16519 0.0 -28.2351 0.0 
  3.3951800537109373 7.493740234375 5.997949829101563 -16.5724 58.4038 -703.43 8.03298 15.805 0.341495 -13.2169 20.894 -4.7625 13.3442 43.5782 -9.68104 39.4736 -54.62 45.9254 -107.2587 -4.58645 4.37717 -31.3488 7.83705 42.4164 0.0 85.798 0.0 47.3104 20.91 17.2348 0.0 0.0 0.0 0.0 0.0 0.0 110.213 -9.62157 2.84322 10.3198 -8.76525 29.8248 0.0 50.3894 0.0 -19.0035 -0.999735 11.9289 0.0 0.0 0.0 0.0 0.0 0.0 -1.54352 -50.9491 -5.89296 0.0 77.1186 0.0 5.61293 16.06843 -10.823 0.0 -32.7066 0.0 49.3809 -71.4906 29.4978 0.0 65.7811 0.0 16.5526 10.2474 -7.87736 0.0 -29.2638 0.0 
  3.4016799926757812 7.503140258789062 5.99843994140625 -16.1621 58.2053 -703.697 8.12719 16.4109 0.200013 -13.1104 20.9085 -4.88162 13.0094 43.184 -9.38748 39.6577 -54.7845 46.134 -107.3221 -4.37341 4.46732 -31.2252 7.73815 42.3503 0.0 86.1025 0.0 47.1602 20.9826 17.3322 0.0 0.0 0.0 0.0 0.0 0.0 110.4429 -9.83089 2.88255 10.8015 -8.69181 29.5887 0.0 51.8027 0.0 -18.9025 -1.0329 12.8209 0.0 0.0 0.0 0.0 0.0 0.0 -2.97124 -50.483 -7.92721 0.0 76.7954 0.0 4.57965 16.21005 -10.2913 0.0 -32.5816 0.0 50.8603 -71.8003 29.4814 0.0 65.5223 0.0 16.8723 10.30309 -7.3562 0.0 -30.357601 0.0 
  3.4035800170898436 7.508930053710937 5.99698974609375 -16.5127 58.0119 -703.443 8.32491 16.7877 -0.0230609 -12.6752 21.0459 -4.9959 12.2223 42.5754 -8.65493 39.5148 -54.9086 45.8518 -107.411896 -4.47543 4.60833 -31.2935 7.79065 42.1464 0.0 86.4726 0.0 47.3088 21.1942 17.2006 0.0 0.0 0.0 0.0 0.0 0.0 110.3724 -9.61319 2.87797 11.4597 -8.84639 29.1491 0.0 53.7038 0.0 -18.8687 -0.958642 13.2725 0.0 0.0 0.0 0.0 0.0 0.0 -3.81355 -50.4067 -9.66925 0.0 76.9896 0.0 3.60702 16.3809 -9.72696 0.0 -32.3864 0.0 53.0634 -71.8774 30.3439 0.0 64.9773 0.0 19.0305 11.41391 -5.97951 0.0 -34.4965 0.0 
